<svg xmlns="http://www.w3.org/2000/svg" fill="none" viewBox="0 0 3492 602"><path stroke="url(#a)" stroke-width="2" d="M199.28 1 1 601" opacity=".05"/><path stroke="url(#b)" stroke-width="2" d="m1316.31 1-198.28 600" opacity=".05"/><path stroke="url(#c)" stroke-width="2" d="m2433.34 1-198.28 600" opacity=".05"/><path stroke="url(#d)" stroke-width="2" d="M261.62 1 61.28 601" opacity=".05"/><path stroke="url(#e)" stroke-width="2" d="m1378.66 1-200.35 600" opacity=".05"/><path stroke="url(#f)" stroke-width="2" d="m2495.69 1-200.35 600" opacity=".05"/><path stroke="url(#g)" stroke-width="2" d="M758.31 1 557.97 601" opacity=".05"/><path stroke="url(#h)" stroke-width="2" d="M1875.34 1 1675 601" opacity=".05"/><path stroke="url(#i)" stroke-width="2" d="m2992.38 1-200.35 600" opacity=".05"/><path stroke="url(#j)" stroke-width="2" d="M325 1 123.62 601" opacity=".05"/><path stroke="url(#k)" stroke-width="2" d="m1442.03 1-201.37 600" opacity=".05"/><path stroke="url(#l)" stroke-width="2" d="m2559.06 1-201.37 600" opacity=".05"/><path stroke="url(#m)" stroke-width="2" d="M821.69 1 620.3 601" opacity=".05"/><path stroke="url(#n)" stroke-width="2" d="m1938.72 1-201.38 600" opacity=".05"/><path stroke="url(#o)" stroke-width="2" d="m3055.75 1-201.37 600" opacity=".05"/><path stroke="url(#p)" stroke-width="2" d="M387.34 1 187 601" opacity=".05"/><path stroke="url(#q)" stroke-width="2" d="m1504.38 1-200.35 600" opacity=".05"/><path stroke="url(#r)" stroke-width="2" d="m2621.41 1-200.35 600" opacity=".05"/><path stroke="url(#s)" stroke-width="2" d="M884.03 1 683.7 601" opacity=".05"/><path stroke="url(#t)" stroke-width="2" d="m2001.06 1-200.34 600" opacity=".05"/><path stroke="url(#u)" stroke-width="2" d="m3118.1 1-200.35 600" opacity=".05"/><path stroke="url(#v)" stroke-width="2" d="M447.62 1 249.34 601" opacity=".05"/><path stroke="url(#w)" stroke-width="2" d="m1564.66 1-198.28 600" opacity=".05"/><path stroke="url(#x)" stroke-width="2" d="m2681.69 1-198.28 600" opacity=".05"/><path stroke="url(#y)" stroke-width="2" d="M944.31 1 746.03 601" opacity=".05"/><path stroke="url(#z)" stroke-width="2" d="m2061.34 1-198.28 600" opacity=".05"/><path stroke="url(#A)" stroke-width="2" d="M3178.37 1 2980.1 601" opacity=".05"/><path stroke="url(#B)" stroke-width="2" d="M509.97 1 309.62 601" opacity=".05"/><path stroke="url(#C)" stroke-width="2" d="m1627 1-200.34 600" opacity=".05"/><path stroke="url(#D)" stroke-width="2" d="m2744.03 1-200.34 600" opacity=".05"/><path stroke="url(#E)" stroke-width="2" d="M1006.66 1 806.31 601" opacity=".05"/><path stroke="url(#F)" stroke-width="2" d="m2123.69 1-200.35 600" opacity=".05"/><path stroke="url(#G)" stroke-width="2" d="m3240.72 1-200.34 600" opacity=".05"/><path stroke="url(#H)" stroke-width="2" d="M572.31 1 371.97 601" opacity=".05"/><path stroke="url(#I)" stroke-width="2" d="M1689.34 1 1489 601" opacity=".05"/><path stroke="url(#J)" stroke-width="2" d="m2806.38 1-200.35 600" opacity=".05"/><path stroke="url(#K)" stroke-width="2" d="M1069 1 868.66 601" opacity=".05"/><path stroke="url(#L)" stroke-width="2" d="m2186.03 1-200.34 600" opacity=".05"/><path stroke="url(#M)" stroke-width="2" d="m3303.06 1-200.34 600" opacity=".05"/><path stroke="url(#N)" stroke-width="2" d="M635.69 1 434.3 601" opacity=".05"/><path stroke="url(#O)" stroke-width="2" d="m1752.72 1-201.38 600" opacity=".05"/><path stroke="url(#P)" stroke-width="2" d="m2869.75 1-201.37 600" opacity=".05"/><path stroke="url(#Q)" stroke-width="2" d="M1132.38 1 931 601" opacity=".05"/><path stroke="url(#R)" stroke-width="2" d="m2249.41 1-201.38 600" opacity=".05"/><path stroke="url(#S)" stroke-width="2" d="m3366.44 1-201.38 600" opacity=".05"/><path stroke="url(#T)" stroke-width="2" d="M695.97 1 497.69 601" opacity=".05"/><path stroke="url(#U)" stroke-width="2" d="m1813 1-198.28 600" opacity=".05"/><path stroke="url(#V)" stroke-width="2" d="m2930.03 1-198.28 600" opacity=".05"/><path stroke="url(#W)" stroke-width="2" d="M1192.66 1 994.38 601" opacity=".05"/><path stroke="url(#X)" stroke-width="2" d="m2309.69 1-198.28 600" opacity=".05"/><path stroke="url(#Y)" stroke-width="2" d="m3426.72 1-198.28 600" opacity=".05"/><path stroke="url(#Z)" stroke-width="2" d="m1256.03 1-201.37 600" opacity=".05"/><path stroke="url(#aa)" stroke-width="2" d="m2373.06 1-201.37 600" opacity=".05"/><path stroke="url(#ab)" stroke-width="2" d="m3490.1 1-201.38 600" opacity=".05"/><defs><linearGradient id="a" x1="100.14" x2="100.14" y1="1" y2="601" gradientUnits="userSpaceOnUse"><stop/><stop offset="1" stop-opacity="0"/></linearGradient><linearGradient id="b" x1="1217.17" x2="1217.17" y1="1" y2="601" gradientUnits="userSpaceOnUse"><stop/><stop offset="1" stop-opacity="0"/></linearGradient><linearGradient id="c" x1="2334.2" x2="2334.2" y1="1" y2="601" gradientUnits="userSpaceOnUse"><stop/><stop offset="1" stop-opacity="0"/></linearGradient><linearGradient id="d" x1="161.45" x2="161.45" y1="1" y2="601" gradientUnits="userSpaceOnUse"><stop/><stop offset="1" stop-opacity="0"/></linearGradient><linearGradient id="e" x1="1278.48" x2="1278.48" y1="1" y2="601" gradientUnits="userSpaceOnUse"><stop/><stop offset="1" stop-opacity="0"/></linearGradient><linearGradient id="f" x1="2395.52" x2="2395.52" y1="1" y2="601" gradientUnits="userSpaceOnUse"><stop/><stop offset="1" stop-opacity="0"/></linearGradient><linearGradient id="g" x1="658.14" x2="658.14" y1="1" y2="601" gradientUnits="userSpaceOnUse"><stop/><stop offset="1" stop-opacity="0"/></linearGradient><linearGradient id="h" x1="1775.17" x2="1775.17" y1="1" y2="601" gradientUnits="userSpaceOnUse"><stop/><stop offset="1" stop-opacity="0"/></linearGradient><linearGradient id="i" x1="2892.2" x2="2892.2" y1="1" y2="601" gradientUnits="userSpaceOnUse"><stop/><stop offset="1" stop-opacity="0"/></linearGradient><linearGradient id="j" x1="224.31" x2="224.31" y1="1" y2="601" gradientUnits="userSpaceOnUse"><stop/><stop offset="1" stop-opacity="0"/></linearGradient><linearGradient id="k" x1="1341.34" x2="1341.34" y1="1" y2="601" gradientUnits="userSpaceOnUse"><stop/><stop offset="1" stop-opacity="0"/></linearGradient><linearGradient id="l" x1="2458.38" x2="2458.38" y1="1" y2="601" gradientUnits="userSpaceOnUse"><stop/><stop offset="1" stop-opacity="0"/></linearGradient><linearGradient id="m" x1="721" x2="721" y1="1" y2="601" gradientUnits="userSpaceOnUse"><stop/><stop offset="1" stop-opacity="0"/></linearGradient><linearGradient id="n" x1="1838.03" x2="1838.03" y1="1" y2="601" gradientUnits="userSpaceOnUse"><stop/><stop offset="1" stop-opacity="0"/></linearGradient><linearGradient id="o" x1="2955.06" x2="2955.06" y1="1" y2="601" gradientUnits="userSpaceOnUse"><stop/><stop offset="1" stop-opacity="0"/></linearGradient><linearGradient id="p" x1="287.17" x2="287.17" y1="1" y2="601" gradientUnits="userSpaceOnUse"><stop/><stop offset="1" stop-opacity="0"/></linearGradient><linearGradient id="q" x1="1404.21" x2="1404.21" y1="1" y2="601" gradientUnits="userSpaceOnUse"><stop/><stop offset="1" stop-opacity="0"/></linearGradient><linearGradient id="r" x1="2521.24" x2="2521.24" y1="1" y2="601" gradientUnits="userSpaceOnUse"><stop/><stop offset="1" stop-opacity="0"/></linearGradient><linearGradient id="s" x1="783.86" x2="783.86" y1="1" y2="601" gradientUnits="userSpaceOnUse"><stop/><stop offset="1" stop-opacity="0"/></linearGradient><linearGradient id="t" x1="1900.89" x2="1900.89" y1="1" y2="601" gradientUnits="userSpaceOnUse"><stop/><stop offset="1" stop-opacity="0"/></linearGradient><linearGradient id="u" x1="3017.92" x2="3017.92" y1="1" y2="601" gradientUnits="userSpaceOnUse"><stop/><stop offset="1" stop-opacity="0"/></linearGradient><linearGradient id="v" x1="348.48" x2="348.48" y1="1" y2="601" gradientUnits="userSpaceOnUse"><stop/><stop offset="1" stop-opacity="0"/></linearGradient><linearGradient id="w" x1="1465.52" x2="1465.52" y1="1" y2="601" gradientUnits="userSpaceOnUse"><stop/><stop offset="1" stop-opacity="0"/></linearGradient><linearGradient id="x" x1="2582.55" x2="2582.55" y1="1" y2="601" gradientUnits="userSpaceOnUse"><stop/><stop offset="1" stop-opacity="0"/></linearGradient><linearGradient id="y" x1="845.17" x2="845.17" y1="1" y2="601" gradientUnits="userSpaceOnUse"><stop/><stop offset="1" stop-opacity="0"/></linearGradient><linearGradient id="z" x1="1962.2" x2="1962.2" y1="1" y2="601" gradientUnits="userSpaceOnUse"><stop/><stop offset="1" stop-opacity="0"/></linearGradient><linearGradient id="A" x1="3079.24" x2="3079.24" y1="1" y2="601" gradientUnits="userSpaceOnUse"><stop/><stop offset="1" stop-opacity="0"/></linearGradient><linearGradient id="B" x1="409.8" x2="409.8" y1="1" y2="601" gradientUnits="userSpaceOnUse"><stop/><stop offset="1" stop-opacity="0"/></linearGradient><linearGradient id="C" x1="1526.83" x2="1526.83" y1="1" y2="601" gradientUnits="userSpaceOnUse"><stop/><stop offset="1" stop-opacity="0"/></linearGradient><linearGradient id="D" x1="2643.86" x2="2643.86" y1="1" y2="601" gradientUnits="userSpaceOnUse"><stop/><stop offset="1" stop-opacity="0"/></linearGradient><linearGradient id="E" x1="906.49" x2="906.49" y1="1" y2="601" gradientUnits="userSpaceOnUse"><stop/><stop offset="1" stop-opacity="0"/></linearGradient><linearGradient id="F" x1="2023.52" x2="2023.52" y1="1" y2="601" gradientUnits="userSpaceOnUse"><stop/><stop offset="1" stop-opacity="0"/></linearGradient><linearGradient id="G" x1="3140.55" x2="3140.55" y1="1" y2="601" gradientUnits="userSpaceOnUse"><stop/><stop offset="1" stop-opacity="0"/></linearGradient><linearGradient id="H" x1="472.14" x2="472.14" y1="1" y2="601" gradientUnits="userSpaceOnUse"><stop/><stop offset="1" stop-opacity="0"/></linearGradient><linearGradient id="I" x1="1589.17" x2="1589.17" y1="1" y2="601" gradientUnits="userSpaceOnUse"><stop/><stop offset="1" stop-opacity="0"/></linearGradient><linearGradient id="J" x1="2706.2" x2="2706.2" y1="1" y2="601" gradientUnits="userSpaceOnUse"><stop/><stop offset="1" stop-opacity="0"/></linearGradient><linearGradient id="K" x1="968.83" x2="968.83" y1="1" y2="601" gradientUnits="userSpaceOnUse"><stop/><stop offset="1" stop-opacity="0"/></linearGradient><linearGradient id="L" x1="2085.86" x2="2085.86" y1="1" y2="601" gradientUnits="userSpaceOnUse"><stop/><stop offset="1" stop-opacity="0"/></linearGradient><linearGradient id="M" x1="3202.89" x2="3202.89" y1="1" y2="601" gradientUnits="userSpaceOnUse"><stop/><stop offset="1" stop-opacity="0"/></linearGradient><linearGradient id="N" x1="535" x2="535" y1="1" y2="601" gradientUnits="userSpaceOnUse"><stop/><stop offset="1" stop-opacity="0"/></linearGradient><linearGradient id="O" x1="1652.03" x2="1652.03" y1="1" y2="601" gradientUnits="userSpaceOnUse"><stop/><stop offset="1" stop-opacity="0"/></linearGradient><linearGradient id="P" x1="2769.06" x2="2769.06" y1="1" y2="601" gradientUnits="userSpaceOnUse"><stop/><stop offset="1" stop-opacity="0"/></linearGradient><linearGradient id="Q" x1="1031.69" x2="1031.69" y1="1" y2="601" gradientUnits="userSpaceOnUse"><stop/><stop offset="1" stop-opacity="0"/></linearGradient><linearGradient id="R" x1="2148.72" x2="2148.72" y1="1" y2="601" gradientUnits="userSpaceOnUse"><stop/><stop offset="1" stop-opacity="0"/></linearGradient><linearGradient id="S" x1="3265.75" x2="3265.75" y1="1" y2="601" gradientUnits="userSpaceOnUse"><stop/><stop offset="1" stop-opacity="0"/></linearGradient><linearGradient id="T" x1="596.83" x2="596.83" y1="1" y2="601" gradientUnits="userSpaceOnUse"><stop/><stop offset="1" stop-opacity="0"/></linearGradient><linearGradient id="U" x1="1713.86" x2="1713.86" y1="1" y2="601" gradientUnits="userSpaceOnUse"><stop/><stop offset="1" stop-opacity="0"/></linearGradient><linearGradient id="V" x1="2830.89" x2="2830.89" y1="1" y2="601" gradientUnits="userSpaceOnUse"><stop/><stop offset="1" stop-opacity="0"/></linearGradient><linearGradient id="W" x1="1093.52" x2="1093.52" y1="1" y2="601" gradientUnits="userSpaceOnUse"><stop/><stop offset="1" stop-opacity="0"/></linearGradient><linearGradient id="X" x1="2210.55" x2="2210.55" y1="1" y2="601" gradientUnits="userSpaceOnUse"><stop/><stop offset="1" stop-opacity="0"/></linearGradient><linearGradient id="Y" x1="3327.58" x2="3327.58" y1="1" y2="601" gradientUnits="userSpaceOnUse"><stop/><stop offset="1" stop-opacity="0"/></linearGradient><linearGradient id="Z" x1="1155.34" x2="1155.34" y1="1" y2="601" gradientUnits="userSpaceOnUse"><stop/><stop offset="1" stop-opacity="0"/></linearGradient><linearGradient id="aa" x1="2272.38" x2="2272.38" y1="1" y2="601" gradientUnits="userSpaceOnUse"><stop/><stop offset="1" stop-opacity="0"/></linearGradient><linearGradient id="ab" x1="3389.41" x2="3389.41" y1="1" y2="601" gradientUnits="userSpaceOnUse"><stop/><stop offset="1" stop-opacity="0"/></linearGradient></defs></svg>