<svg width="40" height="40" viewBox="0 0 40 40" fill="none" xmlns="http://www.w3.org/2000/svg">
    <path fill-rule="evenodd" clip-rule="evenodd"
          d="M35 8.33333V12.1333C35.5038 12.4242 35.9227 12.8418 36.2151 13.3447C36.5075 13.8476 36.6632 14.4183 36.6667 15V25C36.6632 25.5817 36.5075 26.1524 36.2151 26.6553C35.9227 27.1582 35.5038 27.5758 35 27.8667V31.6667C35 33.5 33.5 35 31.6667 35H8.33333C7.44928 35 6.60143 34.6488 5.97631 34.0237C5.35119 33.3986 5 32.5507 5 31.6667V8.33333C5 7.44928 5.35119 6.60143 5.97631 5.97631C6.60143 5.35119 7.44928 5 8.33333 5H31.6667C33.5 5 35 6.5 35 8.33333ZM21.6667 25H33.3333V15H21.6667V25ZM8.33333 8.33333V31.6667H31.6667V28.3333H21.6667C19.8333 28.3333 18.3333 26.8333 18.3333 25V15C18.3333 13.1667 19.8333 11.6667 21.6667 11.6667H31.6667V8.33333H8.33333ZM29.1667 20C29.1667 21.3807 28.0474 22.5 26.6667 22.5C25.286 22.5 24.1667 21.3807 24.1667 20C24.1667 18.6193 25.286 17.5 26.6667 17.5C28.0474 17.5 29.1667 18.6193 29.1667 20Z"
          fill="black"/>
</svg>
