<svg width="15" height="17" viewBox="0 0 15 17" fill="none" xmlns="http://www.w3.org/2000/svg">
<path d="M0.833333 0H14.1667C14.3877 0 14.5996 0.0877973 14.7559 0.244078C14.9122 0.400358 15 0.61232 15 0.833333V15.8333C15 16.0543 14.9122 16.2663 14.7559 16.4226C14.5996 16.5789 14.3877 16.6667 14.1667 16.6667H0.833333C0.61232 16.6667 0.400358 16.5789 0.244078 16.4226C0.0877973 16.2663 0 16.0543 0 15.8333V0.833333C0 0.61232 0.0877973 0.400358 0.244078 0.244078C0.400358 0.0877973 0.61232 0 0.833333 0ZM1.66667 1.66667V15H13.3333V1.66667H1.66667ZM3.33333 3.33333H11.6667V6.66667H3.33333V3.33333ZM3.33333 8.33333H5V10H3.33333V8.33333ZM3.33333 11.6667H5V13.3333H3.33333V11.6667ZM6.66667 8.33333H8.33333V10H6.66667V8.33333ZM6.66667 11.6667H8.33333V13.3333H6.66667V11.6667ZM10 8.33333H11.6667V13.3333H10V8.33333Z" fill="black"/>
</svg>
