<svg width="40" height="40" viewBox="0 0 40 40" fill="none" xmlns="http://www.w3.org/2000/svg">
    <path d="M6.66536 33.3334C5.7487 33.3334 4.96398 33.007 4.3112 32.3542C3.65842 31.7014 3.33203 30.9167 3.33203 30V10C3.33203 9.08335 3.65842 8.29863 4.3112 7.64585C4.96398 6.99308 5.7487 6.66669 6.66536 6.66669H33.332C34.2487 6.66669 35.0334 6.99308 35.6862 7.64585C36.339 8.29863 36.6654 9.08335 36.6654 10V30C36.6654 30.9167 36.339 31.7014 35.6862 32.3542C35.0334 33.007 34.2487 33.3334 33.332 33.3334H6.66536ZM6.66536 30H33.332V13.3334H6.66536V30ZM12.4987 28.3334L10.1654 26L14.457 21.6667L10.1237 17.3334L12.4987 15L19.1654 21.6667L12.4987 28.3334ZM19.9987 28.3334V25H29.9987V28.3334H19.9987Z"
          fill="black"/>
</svg>
